<?xml version="1.0" encoding="UTF-8" standalone="no"?>
<!-- Generator: Adobe Illustrator 19.2.1, SVG Export Plug-In . SVG Version: 6.00 Build 0)  -->

<svg
   xmlns:dc="http://purl.org/dc/elements/1.1/"
   xmlns:cc="http://creativecommons.org/ns#"
   xmlns:rdf="http://www.w3.org/1999/02/22-rdf-syntax-ns#"
   xmlns:svg="http://www.w3.org/2000/svg"
   xmlns="http://www.w3.org/2000/svg"
   xmlns:sodipodi="http://sodipodi.sourceforge.net/DTD/sodipodi-0.dtd"
   xmlns:inkscape="http://www.inkscape.org/namespaces/inkscape"
   version="1.1"
   id="Layer_1"
   x="0px"
   y="0px"
   width="15px"
   height="15px"
   viewBox="0 0 15 15"
   style="enable-background:new 0 0 15 15"
   xml:space="preserve"
   inkscape:version="0.91 r13725"
   sodipodi:docname="playground_white.svg"><metadata
     id="metadata9"><rdf:RDF><cc:Work
         rdf:about=""><dc:format>image/svg+xml</dc:format><dc:type
           rdf:resource="http://purl.org/dc/dcmitype/StillImage" /><dc:title></dc:title></cc:Work></rdf:RDF></metadata><defs
     id="defs7" /><sodipodi:namedview
     pagecolor="#000000"
     bordercolor="#666666"
     borderopacity="1"
     objecttolerance="10"
     gridtolerance="10"
     guidetolerance="10"
     inkscape:pageopacity="0"
     inkscape:pageshadow="2"
     inkscape:window-width="1920"
     inkscape:window-height="1016"
     id="namedview5"
     showgrid="false"
     inkscape:zoom="31.466667"
     inkscape:cx="15.22863"
     inkscape:cy="4.5718206"
     inkscape:window-x="0"
     inkscape:window-y="0"
     inkscape:window-maximized="1"
     inkscape:current-layer="Layer_1" /><path
     d="M2,1.15c0.2091-0.8016,1.0284-1.2819,1.83-1.0729s1.2819,1.0284,1.0729,1.83C4.7026,2.6752,3.9386,3.1542,3.16,3  C2.3474,2.839,1.8191,2.0498,1.98,1.2371C1.9858,1.2079,1.9925,1.1788,2,1.15z M13,12.32c0.1032,0.5426-0.2531,1.066-0.7956,1.1692  c-0.0015,0.0003-0.0029,0.0006-0.0044,0.0008c-0.4252,0.086-0.8574-0.1119-1.07-0.49l0,0L9.45,9.63L8,9.92L7.78,10H7.72v2.15  L8.34,12h0.14c0.2871,0.0054,0.5155,0.2425,0.5101,0.5297C8.9862,12.7361,8.8606,12.9207,8.67,13l-5,1l0,0  c-0.0563,0.0095-0.1137,0.0095-0.17,0c-0.2872,0-0.52-0.2328-0.52-0.52c0-0.2099,0.1262-0.3993,0.32-0.48l0,0l4.15-0.83V10  l-3.22,0.58l0,0c-0.164,0.0423-0.336,0.0423-0.5,0c-0.3394-0.0867-0.6088-0.3446-0.71-0.68H3L2,5.83l0,0  C1.9688,5.6884,1.9688,5.5416,2,5.4c0.0936-0.387,0.4078-0.6815,0.8-0.75l0,0l4.7-0.52V0h0.22v4.1h0.06L8,4.08L8.4,4h0.21  c0.2673,0.0643,0.4326,0.3323,0.37,0.6C8.9361,4.835,8.729,5.0041,8.49,5L8,5.08H7.78H7.72v2.86h0.06L8,7.88l1.81-0.36l0,0l0,0  c0.4275-0.0352,0.8299,0.2062,1,0.6l0,0l2,3.94l0,0C12.887,12.1358,12.9511,12.2236,13,12.32z M7.5,5.13L5,5.4l0.74,2.94L7.5,8V5.13  z"
     id="path3"
     style="stroke:none;fill:#ffffff;fill-opacity:1" /></svg>